<svg viewBox="0 0 407 178" xmlns="http://www.w3.org/2000/svg"><g fill-rule="evenodd"><path d="M3 175h401V3.5H3V175zm-3 3h407V.5H0V178z"></path><path d="M13.448 167.913h380.104V10.587H13.448v157.326zm-2 2h384.104V8.587H11.448v161.326z"></path><path d="M43.025 37.996h-5.428v25.913h-6.419V37.996H25.75v-6.418h17.275v6.418M67.568 63.909h-6.419V50.882h-7.458v13.027h-6.418V31.578h6.418v12.885h7.458V31.578h6.419v32.331M92.348 63.909H75.12V31.578h17.228v6.418H81.539v6.467h10.809v6.419H81.539v6.608h10.809v6.419M142.285 47.767c0 4.626-1.645 8.583-4.933 11.87-3.289 3.289-7.245 4.933-11.871 4.933-4.657 0-8.63-1.644-11.918-4.933-3.288-3.287-4.932-7.244-4.932-11.87 0-4.657 1.644-8.629 4.932-11.918 3.288-3.288 7.261-4.932 11.918-4.932 4.626 0 8.591 1.636 11.895 4.909l-4.522 4.531c-2.042-2.014-4.49-3.021-7.348-3.021-2.889 0-5.354 1.018-7.394 3.054-2.042 2.036-3.061 4.495-3.061 7.377 0 2.851 1.019 5.294 3.059 7.33 2.04 2.036 4.505 3.054 7.393 3.054 3.609 0 6.449-1.464 8.521-4.39h-8.543v-5.994h16.804M160.267 43.566c0-1.541-.543-2.855-1.628-3.941-1.086-1.085-2.4-1.629-3.941-1.629h-1.747v11.14h1.747c1.541 0 2.855-.543 3.941-1.629 1.085-1.085 1.628-2.399 1.628-3.941zm8.532 20.343h-8.532l-7.316-8.354v8.354h-6.419V31.578h8.166c3.303 0 6.127 1.173 8.472 3.518 2.343 2.345 3.516 5.172 3.516 8.477 0 2.203-.576 4.258-1.726 6.162a11.77 11.77 0 0 1-4.707 4.416l8.546 9.758zM189.813 63.909h-17.227V31.578h17.227v6.418h-10.809v6.467h10.809v6.419h-10.809v6.608h10.809v6.419M207.605 56.593l-3.193-8.321-3.257 8.321h6.45zm9.583 7.316h-6.877l-.988-2.69h-9.849l-1.036 2.69h-6.879l12.838-33.324 12.791 33.324zM232.151 37.996h-5.428v25.913h-6.419V37.996h-5.429v-6.418h17.276v6.418M260.753 54.209c0-.905-.323-1.686-.967-2.342-.645-.657-1.423-.985-2.336-.985h-2.361v6.608h2.361c.913 0 1.691-.32 2.336-.96.644-.64.967-1.414.967-2.321zm-.896-13.003c0-.88-.313-1.636-.936-2.265-.622-.63-1.386-.945-2.29-.945h-1.542v6.467h1.542c.904 0 1.668-.314 2.29-.945.623-.628.936-1.398.936-2.312zm7.316 12.98c0 2.675-.952 4.964-2.856 6.867-1.904 1.904-4.193 2.856-6.867 2.856h-8.78V31.578h7.977c2.674 0 4.948.943 6.82 2.832 1.872 1.888 2.809 4.153 2.809 6.796 0 2.58-.928 4.625-2.784 6.136 2.454 1.542 3.681 3.823 3.681 6.844zM286.572 43.566c0-1.541-.544-2.855-1.628-3.941-1.086-1.085-2.402-1.629-3.943-1.629h-1.746v11.14h1.746c1.541 0 2.857-.543 3.943-1.629 1.084-1.085 1.628-2.399 1.628-3.941zm8.531 20.343h-8.531l-7.317-8.354v8.354h-6.419V31.578h8.165c3.304 0 6.128 1.173 8.473 3.518 2.344 2.345 3.517 5.172 3.517 8.477 0 2.203-.577 4.258-1.727 6.162a11.767 11.767 0 0 1-4.706 4.416l8.545 9.758zM298.89 63.909h6.419V31.578h-6.419zM326.784 37.996h-5.428v25.913h-6.419V37.996h-5.429v-6.418h17.276v6.418M331.032 63.909h6.419V31.578h-6.419zM355.291 53.368c0 3.309-1.007 5.963-3.021 7.964-2.015 2.002-4.657 3.002-7.93 3.002-.44 0-.849-.048-1.227-.142v-6.466c.346.126.757.189 1.227.189 1.228 0 2.289-.456 3.186-1.369.897-.912 1.345-1.982 1.345-3.21 0-1.258-.794-3.075-2.382-5.451-1.59-2.376-2.385-4.476-2.385-6.301 0-3.178.952-5.718 2.856-7.623 1.904-1.904 4.429-2.856 7.577-2.856v6.381c-1.152 0-2.108.386-2.87 1.159-.762.772-1.143 1.756-1.143 2.954 0 .82.421 1.86 1.262 3.119 1.308 1.985 2.071 3.183 2.29 3.593.809 1.638 1.215 3.324 1.215 5.057M381.25 63.909h-6.419V50.882h-7.458v13.027h-6.419V31.578h6.419v12.885h7.458V31.578h6.419v32.331M40.181 103.607h1.948c1.471 0 2.677-.497 3.687-1.517 1.184-1.194 1.662-2.672 1.464-4.523a4.264 4.264 0 0 0-.761-2.026c-1.135-1.585-2.571-2.355-4.39-2.355h-1.948v10.421zm1.948 2.051h-2.734a1.267 1.267 0 0 1-1.265-1.266V92.401c0-.698.568-1.265 1.265-1.265h2.734c2.493 0 4.531 1.08 6.057 3.212a6.317 6.317 0 0 1 1.133 3.001c.264 2.468-.424 4.548-2.046 6.184-1.395 1.409-3.126 2.125-5.144 2.125zm-1.948 23.073h3.525c1.615 0 2.939-.6 4.048-1.833a5.064 5.064 0 0 0 1.286-3.064v-.001c.101-1.656-.409-3.031-1.56-4.203-1.052-1.072-2.287-1.593-3.774-1.593h-3.525v10.694zm3.525 2.05h-4.311a1.266 1.266 0 0 1-1.265-1.265v-12.265c0-.697.568-1.265 1.265-1.265h4.311c2.037 0 3.8.742 5.237 2.206 1.559 1.588 2.281 3.528 2.144 5.767v-.001a7.124 7.124 0 0 1-1.808 4.311c-1.499 1.667-3.373 2.512-5.573 2.512zm12.562-20.019l-.002.002.002-.002zM27.801 141.11h15.905c4.851 0 9.064-1.752 12.52-5.207 3.455-3.454 5.206-7.667 5.206-12.519 0-5.393-2.082-9.373-6.365-12.167a1.273 1.273 0 0 1-.571-.983 1.267 1.267 0 0 1 .447-1.037c3.202-2.711 4.76-6.259 4.76-10.844 0-4.794-1.722-8.961-5.119-12.388-3.394-3.423-7.575-5.158-12.425-5.158H27.801v60.303zm15.905 2.051H27.015a1.267 1.267 0 0 1-1.265-1.266V80.022c0-.698.568-1.266 1.265-1.266h15.144c5.417 0 10.087 1.94 13.881 5.765 3.791 3.824 5.714 8.477 5.714 13.832 0 4.781-1.59 8.719-4.728 11.725 4.284 3.138 6.457 7.609 6.457 13.306 0 5.416-1.954 10.116-5.807 13.969-3.855 3.854-8.555 5.808-13.97 5.808zM90.431 112.928v0zm-5.508 14.073h9.446l-4.677-12.186-4.769 12.186zm10.589 2.051h-11.74a1.265 1.265 0 0 1-1.178-1.727l5.927-15.143a1.255 1.255 0 0 1 1.181-.805c.526.001.989.318 1.178.81l5.814 15.147a1.266 1.266 0 0 1-1.182 1.718zm2.755 8.406l.002.007-.002-.007zm3.528 3.652h11.054L89.671 80.725 66.409 141.11h11.068l1.686-4.379a1.274 1.274 0 0 1 1.181-.809h18.659c.531 0 1.009.334 1.19.832l1.602 4.356zm-24.511.502l-.002.004.002-.004zm36.708 1.549h-12.745a1.273 1.273 0 0 1-1.188-.829l-1.603-4.36H80.883l-1.686 4.378c-.185.483-.66.811-1.181.811H65.264a1.264 1.264 0 0 1-1.18-1.721l24.408-63.358c.19-.492.653-.81 1.18-.81h.001c.529 0 .991.319 1.181.811l24.319 63.358a1.265 1.265 0 0 1-1.181 1.72zM149.473 80.42l-.002.003.002-.003zm-10.177 41.143l-.001.002.001-.002zm-5.549 9.377l-.01.018.01-.018zm18.315 10.17h12.151l-19.125-31.878c-.24-.401-.24-.9-.001-1.3l16.253-27.125h-12.096l-15.095 25.505a1.25 1.25 0 0 1-1.422.577 1.255 1.255 0 0 1-.932-1.221V80.807h-10.328v60.303h10.328v-10.552c0-.233.064-.46.184-.658l5.551-9.38c.225-.38.64-.619 1.085-.621h.005c.441 0 .856.236 1.084.615l12.358 20.596zm.223.37l.006.011-.006-.011zm13.315 1.681h-13.983c-.446 0-.863-.238-1.089-.622l-11.904-19.84-4.778 8.073v11.123c0 .698-.568 1.266-1.265 1.266h-11.9a1.267 1.267 0 0 1-1.265-1.266V80.022c0-.698.567-1.266 1.265-1.266h11.9c.697 0 1.265.568 1.265 1.266v22.776l13.861-23.42a1.27 1.27 0 0 1 1.089-.622h13.93c.455 0 .876.246 1.101.641a1.27 1.27 0 0 1-.014 1.274l-16.724 27.911 19.596 32.662a1.264 1.264 0 1 1-1.085 1.917zM173.259 141.11h31.174v-10.329h-19.58a1.266 1.266 0 0 1-1.265-1.265v-12.265c0-.697.568-1.265 1.265-1.265h19.58v-10.328h-19.58a1.267 1.267 0 0 1-1.265-1.266V92.401c0-.698.568-1.265 1.265-1.265h19.58V80.807h-31.174v60.303zm31.96 2.051h-32.745a1.267 1.267 0 0 1-1.265-1.266V80.022c0-.698.567-1.266 1.265-1.266h32.745c.697 0 1.265.568 1.265 1.266v11.9c0 .697-.568 1.264-1.265 1.264h-19.58v10.421h19.58c.697 0 1.265.568 1.265 1.265v11.899c0 .699-.568 1.266-1.265 1.266h-19.58v10.694h19.58c.697 0 1.265.568 1.265 1.265v11.899c0 .698-.568 1.266-1.265 1.266zM259.069 92.095c-5.242 0-9.782 1.864-13.495 5.544-3.713 3.673-5.596 8.185-5.596 13.411 0 5.168 1.884 9.666 5.598 13.369 3.712 3.706 8.252 5.586 13.493 5.586 5.18 0 9.69-1.88 13.404-5.586 3.25-3.241 5.103-7.091 5.508-11.442.623-6.654-2.357-13.279-7.774-17.291-3.213-2.383-6.961-3.591-11.138-3.591zm0 39.961c-5.804 0-10.831-2.081-14.942-6.185-4.114-4.103-6.2-9.089-6.2-14.821 0-5.794 2.087-10.796 6.203-14.869 4.112-4.072 9.137-6.137 14.939-6.137 4.626 0 8.784 1.344 12.36 3.993 5.989 4.438 9.282 11.768 8.594 19.131-.451 4.84-2.504 9.114-6.102 12.703-4.111 4.104-9.109 6.185-14.852 6.185zm0-52.523c-8.657 0-16.147 3.1-22.259 9.212-6.112 6.112-9.211 13.602-9.211 22.259 0 8.597 3.099 16.056 9.211 22.168 6.111 6.113 13.601 9.213 22.259 9.213 8.598 0 16.056-3.1 22.169-9.213 6.113-6.113 9.212-13.571 9.212-22.168 0-8.655-3.099-16.145-9.212-22.259-6.115-6.112-13.573-9.212-22.169-9.212zm0 64.902c-9.222 0-17.199-3.302-23.709-9.813-6.511-6.51-9.812-14.456-9.812-23.618 0-9.222 3.301-17.197 9.812-23.709 6.511-6.511 14.489-9.813 23.709-9.813 9.16 0 17.106 3.302 23.619 9.813 6.512 6.514 9.812 14.49 9.812 23.709 0 9.16-3.3 17.106-9.812 23.618-6.511 6.511-14.457 9.813-23.619 9.813zM302.967 141.11h10.329v-23.859c0-.697.568-1.265 1.265-1.265h19.58v-10.328h-19.58a1.267 1.267 0 0 1-1.265-1.266V92.401c0-.698.568-1.265 1.265-1.265h19.58V80.807h-31.174v60.303zm11.114 2.051h-11.9a1.268 1.268 0 0 1-1.265-1.266V80.022c0-.698.569-1.266 1.265-1.266h32.746c.697 0 1.265.568 1.265 1.266v11.9c0 .697-.568 1.264-1.265 1.264h-19.58v10.421h19.58c.697 0 1.265.568 1.265 1.265v11.899c0 .699-.568 1.266-1.265 1.266h-19.58v23.858c0 .698-.568 1.266-1.266 1.266zM348.026 141.11h10.328v-23.859c0-.697.567-1.265 1.265-1.265H379.2v-10.328h-19.581a1.267 1.267 0 0 1-1.265-1.266V92.401c0-.698.567-1.265 1.265-1.265H379.2V80.807h-31.174v60.303zm11.113 2.051H347.24a1.267 1.267 0 0 1-1.265-1.266V80.022c0-.698.567-1.266 1.265-1.266h32.746c.696 0 1.264.568 1.264 1.266v11.9c0 .697-.568 1.264-1.264 1.264h-19.581v10.421h19.581c.696 0 1.264.568 1.264 1.265v11.899c0 .699-.568 1.266-1.264 1.266h-19.581v23.858c0 .698-.568 1.266-1.266 1.266zM375.583 138.406h1.956c1.473 0 2.186-.552 2.186-1.68 0-1.126-.645-1.632-2.024-1.632h-2.118v3.312zm2.371-4.256c2.07 0 3.197.874 3.197 2.508 0 1.013-.552 1.772-1.587 2.186 1.15.414 1.427.966 1.473 2.876.045.897.092 1.15.23 1.426h-1.381c-.138-.23-.161-.552-.229-1.702-.07-1.082-.208-1.518-.621-1.795-.323-.23-.875-.345-1.589-.345h-1.864v3.842h-1.426v-8.996h3.797zm-7.202 4.487c0 3.773 3.06 6.879 6.787 6.879 3.75 0 6.788-3.083 6.788-6.879 0-3.774-3.038-6.903-6.696-6.903-3.843 0-6.879 3.037-6.879 6.903zm14.725 0a7.94 7.94 0 0 1-7.938 7.937c-4.372 0-7.937-3.566-7.937-7.937 0-4.441 3.543-7.961 8.053-7.961 4.278 0 7.822 3.612 7.822 7.961z"></path></g></svg>